{"title":"Police Story (1985)","uid":5348790,"size":732181370,"categoryP":"video","categoryS":"movies","magnet":"?xt=urn:btih:f7cf673b43ca70f38719b2252c4bd27bebae8034&amp;dn=Police+Story+%281985%29&amp;tr=udp%3A%2F%2Ftracker.openbittorrent.com%3A80&amp;tr=udp%3A%2F%2Fopen.demonii.com%3A1337&amp;tr=udp%3A%2F%2Ftracker.coppersurfer.tk%3A6969&amp;tr=udp%3A%2F%2Fexodus.desync.com%3A6969","seeders":1,"leechers":0,"uploader":"penbox","files":-1,"time":1265724941,"description":"Format : AVI\nFormat/Info : Audio Video Interleave\nFile size : 698 MiB\nDuration : 1h 36mn\nOverall bit rate : 1 015 Kbps\nMovie name : Police Story\nDirector : SolarBurn\nSubject : Police Story\nWriting application : Nandub v1.0rc2\nWriting library : Nandub build 1852/release\nCopyright : MEDiAMANiACS\nComment : 140lbs of pimp\n\n   Video #0\n\n      ID : 0\n      Format : MPEG-4 Visual\n      Codec ID : DIV3\n      Codec ID/Hint : DivX 3 Low\n      Duration : 1h 36mn\n      Bit rate : 870 Kbps\n      Width : 592 pixels\n      Height : 224 pixels\n      Display aspect ratio : 2.643\n      Frame rate : 25.000 fps\n      Resolution : 24 bits\n      Bits/(Pixel*Frame) : 0.263\n      Stream size : 599 MiB (86%)\n\n   Audio #1\n\n      ID : 1\n      Format : MPEG Audio\n      Format version : Version 1\n      Format profile : Layer 3\n      Codec ID : 55\n      Codec ID/Hint : MP3\n      Duration : 1h 36mn\n      Bit rate mode : Variable\n      Bit rate : 132 Kbps\n      Channel(s) : 2 channels\n      Sampling rate : 48.0 KHz\n      Resolution : 16 bits\n      Stream size : 90.5 MiB (13%)\n      Alignment : Aligned on interleaves\n      Interleave, duration : 24 ms (0.60 video frame)\n      Interleave, preload duration : 449 ms\n      Writing library : LAME3.90a\n      Encoding settings : -m j -V 7 -q 1 --vbr-new","torrent":{"xt":"urn:btih:f7cf673b43ca70f38719b2252c4bd27bebae8034","amp;dn":"Police+Story+%281985%29","amp;tr":["udp%3A%2F%2Ftracker.openbittorrent.com%3A80","udp%3A%2F%2Fopen.demonii.com%3A1337","udp%3A%2F%2Ftracker.coppersurfer.tk%3A6969","udp%3A%2F%2Fexodus.desync.com%3A6969"],"infoHash":"f7cf673b43ca70f38719b2252c4bd27bebae8034","infoHashBuffer":{"type":"Buffer","data":[247,207,103,59,67,202,112,243,135,25,178,37,44,75,210,123,235,174,128,52]},"announce":[],"urlList":[]}}